<svg xmlns="http://www.w3.org/2000/svg" width="512" height="512" viewBox="0 0 512 512">
  <defs>
    <radialGradient id="bg" cx="0.5" cy="0.4" r="0.8">
      <stop offset="0"    stop-color="#48280f"/>
      <stop offset="0.5"  stop-color="#241609"/>
      <stop offset="1"    stop-color="#0f0a06"/>
    </radialGradient>
    <radialGradient id="glow" cx="0.5" cy="0.44" r="0.42">
      <stop offset="0"   stop-color="#ff9f45" stop-opacity="0.5"/>
      <stop offset="0.6" stop-color="#ff9f45" stop-opacity="0.16"/>
      <stop offset="1"   stop-color="#ff9f45" stop-opacity="0"/>
    </radialGradient>
    <radialGradient id="shadow" cx="0.5" cy="0.5" r="0.5">
      <stop offset="0" stop-color="#000000" stop-opacity="0.55"/>
      <stop offset="1" stop-color="#000000" stop-opacity="0"/>
    </radialGradient>
  </defs>

  <rect width="512" height="512" fill="url(#bg)"/>
  <rect width="512" height="512" fill="url(#glow)"/>

  <!-- тёплые кольца: заполняют углы и не спорят с главным объектом -->
  <g fill="none" stroke="#ffc978" stroke-width="6" opacity="0.1">
    <circle cx="58"  cy="80"  r="38"/>
    <circle cx="452" cy="418" r="46"/>
  </g>

  <ellipse cx="256" cy="464" rx="146" ry="32" fill="url(#shadow)"/>

  <!-- свёрток занимает почти всю высоту: иконку смотрят размером с ноготь -->
  <g transform="translate(106, 36) scale(1.25) rotate(-6, 120, 171)">
    
  <defs>
    <linearGradient id="breadI" x1="0" y1="0" x2="1" y2="0.3">
      <stop offset="0"    stop-color="#f7dcaa"/>
      <stop offset="0.42" stop-color="#e8bd7a"/>
      <stop offset="1"    stop-color="#c28f4c"/>
    </linearGradient>
    <linearGradient id="paperI" x1="0" y1="0" x2="1" y2="0.25">
      <stop offset="0"    stop-color="#fffaf0"/>
      <stop offset="0.5"  stop-color="#f4eee1"/>
      <stop offset="1"    stop-color="#d9d0bd"/>
    </linearGradient>
    <clipPath id="bodyI">
      <path d="M 42 50 C 42 20, 76 6, 120 6 C 164 6, 198 20, 198 50
               C 192 142, 180 222, 170 288 C 166 316, 146 336, 120 336
               C 94 336, 74 316, 70 288 C 60 222, 48 142, 42 50 Z"/>
    </clipPath>
  </defs>

  <!-- корпус свёртка -->
  <path d="M 42 50 C 42 20, 76 6, 120 6 C 164 6, 198 20, 198 50
           C 192 142, 180 222, 170 288 C 166 316, 146 336, 120 336
           C 94 336, 74 316, 70 288 C 60 222, 48 142, 42 50 Z"
        fill="url(#breadI)"/>

  <g clip-path="url(#bodyI)">
    <!-- мягкая тень по правому краю: свёрток круглый, а не плоский -->
    <path d="M 148 0 L 214 0 L 186 344 L 128 344 Z" fill="#9d6c33" opacity="0.3"/>
    <!-- блик слева -->
    <path d="M 66 44 C 74 134, 80 232, 88 338 L 58 338 L 40 60 Z"
          fill="#fff3d6" opacity="0.36"/>

    <!-- следы гриля: короткие дуги поперёк, а не полоски по линейке -->
    <g stroke="#9d6c33" stroke-width="5" stroke-linecap="round" fill="none" opacity="0.3">
      <path d="M 54 116 C 82 106, 140 106, 188 118"/>
      <path d="M 58 164 C 84 154, 138 154, 182 166"/>
      <path d="M 63 212 C 88 203, 134 203, 176 214"/>
    </g>

    <!-- начинка в открытом верхе -->
    <ellipse cx="120" cy="46" rx="80" ry="40" fill="#8d4620"/>
    <ellipse cx="120" cy="40" rx="76" ry="34" fill="#b2602c"/>
    <path d="M 46 36 C 66 14, 98 10, 118 22 C 136 33, 128 56, 106 58
             C 78 61, 52 50, 46 36 Z" fill="#6aa844"/>
    <path d="M 52 38 C 70 24, 94 22, 110 30" stroke="#4d8130"
          stroke-width="4" fill="none" stroke-linecap="round"/>
    <circle cx="160" cy="34" r="22" fill="#d9452f"/>
    <circle cx="160" cy="34" r="12" fill="#ea6a52" opacity="0.72"/>
    <path d="M 116 12 C 134 4, 156 8, 166 18" stroke="#efdcef"
          stroke-width="8" fill="none" stroke-linecap="round" opacity="0.9"/>
    <path d="M 70 16 C 90 6, 110 8, 122 16" stroke="#f6e3a4"
          stroke-width="7" fill="none" stroke-linecap="round" opacity="0.95"/>
    <ellipse cx="92" cy="56" rx="17" ry="10" fill="#8d4620" opacity="0.8"/>
    <ellipse cx="146" cy="60" rx="18" ry="11" fill="#8d4620" opacity="0.6"/>

    <!-- бумага: диагональный край, как её и заворачивают -->
    <path d="M 30 214 L 210 182 L 210 348 L 30 348 Z" fill="url(#paperI)"/>
    <path d="M 30 214 L 210 182 L 210 196 L 30 228 Z" fill="#c7bca6" opacity="0.6"/>
    <g stroke="#c7bca6" stroke-width="3" fill="none" opacity="0.5">
      <path d="M 66 222 L 84 344"/>
      <path d="M 120 214 L 122 346"/>
      <path d="M 176 204 L 160 344"/>
    </g>
    <!-- складка: без неё бумага читается плоским прямоугольником -->
    <path d="M 122 216 L 142 344 L 152 344 L 130 214 Z" fill="#ffffff" opacity="0.55"/>
  </g>

  <!-- контур: он собирает форму, без него всё расплывается -->
  <path d="M 42 50 C 42 20, 76 6, 120 6 C 164 6, 198 20, 198 50
           C 192 142, 180 222, 170 288 C 166 316, 146 336, 120 336
           C 94 336, 74 316, 70 288 C 60 222, 48 142, 42 50 Z"
        fill="none" stroke="#9d6c33" stroke-width="6" opacity="0.65"/>
  </g>
</svg>